<?xml version="1.0" encoding="UTF-8" standalone="no"?>
<!-- Created with Inkscape (http://www.inkscape.org/) -->

<svg
   xmlns:osb="http://www.openswatchbook.org/uri/2009/osb"
   xmlns:dc="http://purl.org/dc/elements/1.1/"
   xmlns:cc="http://creativecommons.org/ns#"
   xmlns:rdf="http://www.w3.org/1999/02/22-rdf-syntax-ns#"
   xmlns:svg="http://www.w3.org/2000/svg"
   xmlns="http://www.w3.org/2000/svg"
   xmlns:sodipodi="http://sodipodi.sourceforge.net/DTD/sodipodi-0.dtd"
   xmlns:inkscape="http://www.inkscape.org/namespaces/inkscape"
   width="256"
   height="256"
   viewBox="0 0 256 256"
   id="svg4280"
   version="1.1"
   inkscape:version="0.92.3pre0 (0ab9bec, 2018-03-03)"
   sodipodi:docname="goodvibes-favicon.svg"
   inkscape:export-xdpi="300"
   inkscape:export-ydpi="300">
  <defs
     id="defs4282">
    <linearGradient
       id="Jaune_base">
      <stop
         style="stop-color:#ffe354;stop-opacity:1;"
         offset="0"
         id="stop1663" />
      <stop
         style="stop-color:#ee9700;stop-opacity:1"
         offset="1"
         id="stop1665" />
    </linearGradient>
    <linearGradient
       id="linearGradient6121">
      <stop
         style="stop-color:#a0a0a0;stop-opacity:1"
         offset="0"
         id="stop6123" />
      <stop
         style="stop-color:#5e5e5e;stop-opacity:1"
         offset="1"
         id="stop6125" />
    </linearGradient>
    <linearGradient
       id="linearGradient4789">
      <stop
         id="stop4791"
         offset="0"
         style="stop-color:#b4b4b4;stop-opacity:1" />
      <stop
         id="stop4793"
         offset="1"
         style="stop-color:#777777;stop-opacity:1;" />
    </linearGradient>
    <linearGradient
       id="Jaune_base-3">
      <stop
         id="stop4530"
         offset="0"
         style="stop-color:#ffe354;stop-opacity:1;" />
      <stop
         id="stop4532"
         offset="1"
         style="stop-color:#ee9700;stop-opacity:1" />
    </linearGradient>
    <linearGradient
       id="linearGradient4702"
       osb:paint="solid">
      <stop
         style="stop-color:#cc9122;stop-opacity:1;"
         offset="0"
         id="stop4704" />
    </linearGradient>
    <linearGradient
       id="linearGradient6000-7">
      <stop
         style="stop-color:#000000;stop-opacity:0.77049178;"
         offset="0"
         id="stop6002-4" />
      <stop
         style="stop-color:#000000;stop-opacity:0.3114754;"
         offset="1"
         id="stop6004-0" />
    </linearGradient>
    <linearGradient
       id="linearGradient4777">
      <stop
         id="stop5734-5"
         offset="0"
         style="stop-color:#b3b3b3;stop-opacity:1" />
      <stop
         id="stop5736-2"
         offset="1"
         style="stop-color:#5e5e5e;stop-opacity:1" />
    </linearGradient>
    <linearGradient
       id="linearGradient3813-6">
      <stop
         style="stop-color:#212121;stop-opacity:1;"
         offset="0"
         id="stop3815-1" />
      <stop
         style="stop-color:#000000;stop-opacity:0;"
         offset="1"
         id="stop3817-4" />
    </linearGradient>
  </defs>
  <sodipodi:namedview
     id="base"
     pagecolor="#ffffff"
     bordercolor="#666666"
     borderopacity="1.0"
     inkscape:pageopacity="0.0"
     inkscape:pageshadow="2"
     inkscape:zoom="5.6568542"
     inkscape:cx="60.847984"
     inkscape:cy="133.26677"
     inkscape:document-units="px"
     inkscape:current-layer="layer1"
     showgrid="false"
     inkscape:window-width="3200"
     inkscape:window-height="1671"
     inkscape:window-x="0"
     inkscape:window-y="55"
     inkscape:window-maximized="1"
     units="px"
     fit-margin-left="0.5"
     fit-margin-right="0.5"
     fit-margin-top="0.5"
     fit-margin-bottom="0.5"
     showborder="true"
     inkscape:showpageshadow="false" />
  <metadata
     id="metadata4285">
    <rdf:RDF>
      <cc:Work
         rdf:about="">
        <dc:format>image/svg+xml</dc:format>
        <dc:type
           rdf:resource="http://purl.org/dc/dcmitype/StillImage" />
        <dc:title />
        <cc:license
           rdf:resource="https://www.gnu.org/licenses/gpl-3.0" />
        <dc:creator>
          <cc:Agent>
            <dc:title>Hector Lahminewski</dc:title>
          </cc:Agent>
        </dc:creator>
      </cc:Work>
    </rdf:RDF>
  </metadata>
  <g
     inkscape:label="Layer 1"
     inkscape:groupmode="layer"
     id="layer1"
     transform="translate(-134.7485,-306.52609)">
    <path
       style="fill:#000000;fill-opacity:1;fill-rule:evenodd;stroke:none;stroke-width:0.5;stroke-miterlimit:4;stroke-dasharray:none;stroke-opacity:1"
       d="M 222.60742 4.1074219 C 222.2004 4.1430219 221.79245 4.2191037 221.38477 4.3398438 L 39.662109 58.154297 C 21.529289 62.603117 8.1503906 78.900459 8.1503906 98.443359 L 8.1503906 189.02344 C 8.1503906 212.01233 26.657574 230.51953 49.646484 230.51953 L 206.49414 230.51953 C 229.48302 230.51953 247.99023 212.01233 247.99023 189.02344 L 247.99023 98.443359 C 247.99023 75.454469 229.48302 56.947266 206.49414 56.947266 L 108.66211 56.947266 L 226.61914 22.013672 C 229.88021 21.047912 231.72747 17.645856 230.76172 14.384766 L 229.01367 8.4824219 C 228.16863 5.6289819 225.45662 3.8587119 222.60742 4.1074219 z M 167.5 91 A 52.5 52.5 0 0 1 220 143.5 A 52.5 52.5 0 0 1 167.5 196 A 52.5 52.5 0 0 1 115 143.5 A 52.5 52.5 0 0 1 167.5 91 z M 43.5625 94.693359 L 88.869141 94.693359 C 90.1693 94.693359 91.214844 95.740856 91.214844 97.041016 L 91.214844 117.34766 C 91.214844 118.64782 90.1693 119.69336 88.869141 119.69336 L 43.5625 119.69336 C 42.262341 119.69336 41.214844 118.64782 41.214844 117.34766 L 41.214844 97.041016 C 41.214844 95.740856 42.262341 94.693359 43.5625 94.693359 z M 64.234375 154.1543 A 20 20 0 0 1 84.234375 174.1543 A 20 20 0 0 1 64.234375 194.1543 A 20 20 0 0 1 44.234375 174.1543 A 20 20 0 0 1 64.234375 154.1543 z "
       transform="translate(134.7485,306.52609)"
       id="path4591" />
  </g>
</svg>
