<?xml version="1.0" encoding="UTF-8" standalone="no"?>
<!-- Created with Inkscape (http://www.inkscape.org/) -->

<svg
   xmlns:osb="http://www.openswatchbook.org/uri/2009/osb"
   xmlns:dc="http://purl.org/dc/elements/1.1/"
   xmlns:cc="http://creativecommons.org/ns#"
   xmlns:rdf="http://www.w3.org/1999/02/22-rdf-syntax-ns#"
   xmlns:svg="http://www.w3.org/2000/svg"
   xmlns="http://www.w3.org/2000/svg"
   xmlns:sodipodi="http://sodipodi.sourceforge.net/DTD/sodipodi-0.dtd"
   xmlns:inkscape="http://www.inkscape.org/namespaces/inkscape"
   width="16"
   height="16"
   viewBox="0 0 16 16"
   id="svg4280"
   version="1.1"
   inkscape:version="0.92.1 r15371"
   sodipodi:docname="goodvibes-symbolic.svg"
   inkscape:export-filename="/Users/jbx/Desktop/gooV5-0.png"
   inkscape:export-xdpi="300"
   inkscape:export-ydpi="300">
  <defs
     id="defs4282">
    <linearGradient
       id="linearGradient6121">
      <stop
         style="stop-color:#a0a0a0;stop-opacity:1"
         offset="0"
         id="stop6123" />
      <stop
         style="stop-color:#5e5e5e;stop-opacity:1"
         offset="1"
         id="stop6125" />
    </linearGradient>
    <linearGradient
       id="linearGradient4789">
      <stop
         id="stop4791"
         offset="0"
         style="stop-color:#b4b4b4;stop-opacity:1" />
      <stop
         id="stop4793"
         offset="1"
         style="stop-color:#777777;stop-opacity:1;" />
    </linearGradient>
    <linearGradient
       id="Jaune_base">
      <stop
         id="stop4530"
         offset="0"
         style="stop-color:#ffe354;stop-opacity:1;" />
      <stop
         id="stop4532"
         offset="1"
         style="stop-color:#ee9700;stop-opacity:1" />
    </linearGradient>
    <linearGradient
       id="linearGradient4702"
       osb:paint="solid">
      <stop
         style="stop-color:#cc9122;stop-opacity:1;"
         offset="0"
         id="stop4704" />
    </linearGradient>
    <linearGradient
       id="linearGradient6000-7">
      <stop
         style="stop-color:#000000;stop-opacity:0.77049178;"
         offset="0"
         id="stop6002-4" />
      <stop
         style="stop-color:#000000;stop-opacity:0.3114754;"
         offset="1"
         id="stop6004-0" />
    </linearGradient>
    <linearGradient
       id="linearGradient4777">
      <stop
         id="stop5734-5"
         offset="0"
         style="stop-color:#b3b3b3;stop-opacity:1" />
      <stop
         id="stop5736-2"
         offset="1"
         style="stop-color:#5e5e5e;stop-opacity:1" />
    </linearGradient>
    <linearGradient
       id="linearGradient3813-6">
      <stop
         style="stop-color:#212121;stop-opacity:1;"
         offset="0"
         id="stop3815-1" />
      <stop
         style="stop-color:#000000;stop-opacity:0;"
         offset="1"
         id="stop3817-4" />
    </linearGradient>
  </defs>
  <sodipodi:namedview
     id="base"
     pagecolor="#555753"
     bordercolor="#666666"
     borderopacity="1.0"
     inkscape:pageopacity="1"
     inkscape:pageshadow="2"
     inkscape:zoom="17.88273"
     inkscape:cx="1.6772058"
     inkscape:cy="11.139184"
     inkscape:document-units="px"
     inkscape:current-layer="layer1"
     showgrid="false"
     inkscape:window-width="1450"
     inkscape:window-height="1016"
     inkscape:window-x="452"
     inkscape:window-y="27"
     inkscape:window-maximized="0"
     units="px"
     fit-margin-left="0.5"
     fit-margin-right="0.5"
     fit-margin-top="0.5"
     fit-margin-bottom="0.5"
     showborder="true"
     inkscape:measure-start="0,0"
     inkscape:measure-end="0,0"
     inkscape:showpageshadow="false" />
  <metadata
     id="metadata4285">
    <rdf:RDF>
      <cc:Work
         rdf:about="">
        <dc:format>image/svg+xml</dc:format>
        <dc:type
           rdf:resource="http://purl.org/dc/dcmitype/StillImage" />
        <dc:title></dc:title>
      </cc:Work>
    </rdf:RDF>
  </metadata>
  <g
     inkscape:label="Layer 1"
     inkscape:groupmode="layer"
     id="layer1"
     transform="translate(-134.7485,-530.45942)">
    <path
       style="fill:#bebebe;fill-opacity:1;fill-rule:evenodd;stroke:none;stroke-width:0.03116116;stroke-miterlimit:4;stroke-dasharray:none;stroke-opacity:1"
       d="m 148.66061,531.42985 c -0.0255,0.002 -0.0507,0.006 -0.0762,0.0137 l -11.36524,3.34179 c -1.13406,0.27629 -1.9707,1.28828 -1.9707,2.50196 v 5.62695 c 0,1.42769 1.15794,2.57617 2.5957,2.57617 h 9.8086 c 1.43777,0 2.5957,-1.14848 2.5957,-2.57617 v -5.62695 c 0,-1.42769 -1.15793,-2.57618 -2.5957,-2.57618 h -6.11719 l 7.37695,-2.16992 c 0.20395,-0.06 0.31821,-0.27013 0.25781,-0.47265 l -0.10937,-0.36719 c -0.0529,-0.17721 -0.22219,-0.28693 -0.40039,-0.27149 z m -3.86328,4.65625 a 4.0488458,4.0204897 0 0 1 4.04883,4.01953 4.0488458,4.0204897 0 0 1 -4.04883,4.02149 4.0488458,4.0204897 0 0 1 -4.04883,-4.02149 4.0488458,4.0204897 0 0 1 4.04883,-4.01953 z m -8.1211,1.36914 h 3.50782 c 0.0597,0 0.10742,0.0497 0.10742,0.10938 v 0.93164 c 0,0.0597 -0.0477,0.10742 -0.10742,0.10742 h -3.50782 c -0.0597,0 -0.10742,-0.0477 -0.10742,-0.10742 v -0.93164 c 0,-0.0597 0.0477,-0.10938 0.10742,-0.10938 z m 1.6875,3.69922 a 1.108282,1.1005201 0 0 1 1.10743,1.10157 1.108282,1.1005201 0 0 1 -1.10743,1.0996 1.108282,1.1005201 0 0 1 -1.10937,-1.0996 1.108282,1.1005201 0 0 1 1.10937,-1.10157 z"
       id="path4591"
       inkscape:connector-curvature="0" />
  </g>
</svg>
