<?xml version="1.0" encoding="UTF-8" standalone="no"?>
<!-- Created with Inkscape (http://www.inkscape.org/) -->

<svg
   xmlns:osb="http://www.openswatchbook.org/uri/2009/osb"
   xmlns:dc="http://purl.org/dc/elements/1.1/"
   xmlns:cc="http://creativecommons.org/ns#"
   xmlns:rdf="http://www.w3.org/1999/02/22-rdf-syntax-ns#"
   xmlns:svg="http://www.w3.org/2000/svg"
   xmlns="http://www.w3.org/2000/svg"
   xmlns:sodipodi="http://sodipodi.sourceforge.net/DTD/sodipodi-0.dtd"
   xmlns:inkscape="http://www.inkscape.org/namespaces/inkscape"
   width="16"
   height="16"
   viewBox="0 0 16 16"
   id="svg4280"
   version="1.1"
   inkscape:version="0.92.1 r15371"
   sodipodi:docname="goodvibes-symbolic.svg"
   inkscape:export-filename="/Users/jbx/Desktop/gooV5-0.png"
   inkscape:export-xdpi="300"
   inkscape:export-ydpi="300">
  <defs
     id="defs4282">
    <linearGradient
       id="linearGradient6121">
      <stop
         style="stop-color:#a0a0a0;stop-opacity:1"
         offset="0"
         id="stop6123" />
      <stop
         style="stop-color:#5e5e5e;stop-opacity:1"
         offset="1"
         id="stop6125" />
    </linearGradient>
    <linearGradient
       id="linearGradient4789">
      <stop
         id="stop4791"
         offset="0"
         style="stop-color:#b4b4b4;stop-opacity:1" />
      <stop
         id="stop4793"
         offset="1"
         style="stop-color:#777777;stop-opacity:1;" />
    </linearGradient>
    <linearGradient
       id="Jaune_base">
      <stop
         id="stop4530"
         offset="0"
         style="stop-color:#ffe354;stop-opacity:1;" />
      <stop
         id="stop4532"
         offset="1"
         style="stop-color:#ee9700;stop-opacity:1" />
    </linearGradient>
    <linearGradient
       id="linearGradient4702"
       osb:paint="solid">
      <stop
         style="stop-color:#cc9122;stop-opacity:1;"
         offset="0"
         id="stop4704" />
    </linearGradient>
    <linearGradient
       id="linearGradient6000-7">
      <stop
         style="stop-color:#000000;stop-opacity:0.77049178;"
         offset="0"
         id="stop6002-4" />
      <stop
         style="stop-color:#000000;stop-opacity:0.3114754;"
         offset="1"
         id="stop6004-0" />
    </linearGradient>
    <linearGradient
       id="linearGradient4777">
      <stop
         id="stop5734-5"
         offset="0"
         style="stop-color:#b3b3b3;stop-opacity:1" />
      <stop
         id="stop5736-2"
         offset="1"
         style="stop-color:#5e5e5e;stop-opacity:1" />
    </linearGradient>
    <linearGradient
       id="linearGradient3813-6">
      <stop
         style="stop-color:#212121;stop-opacity:1;"
         offset="0"
         id="stop3815-1" />
      <stop
         style="stop-color:#000000;stop-opacity:0;"
         offset="1"
         id="stop3817-4" />
    </linearGradient>
  </defs>
  <sodipodi:namedview
     id="base"
     pagecolor="#555753"
     bordercolor="#666666"
     borderopacity="1.0"
     inkscape:pageopacity="1"
     inkscape:pageshadow="2"
     inkscape:zoom="30.719999"
     inkscape:cx="3.6839279"
     inkscape:cy="11.139184"
     inkscape:document-units="px"
     inkscape:current-layer="layer1"
     showgrid="false"
     inkscape:window-width="1450"
     inkscape:window-height="1016"
     inkscape:window-x="452"
     inkscape:window-y="27"
     inkscape:window-maximized="0"
     units="px"
     fit-margin-left="0.5"
     fit-margin-right="0.5"
     fit-margin-top="0.5"
     fit-margin-bottom="0.5"
     showborder="false" />
  <metadata
     id="metadata4285">
    <rdf:RDF>
      <cc:Work
         rdf:about="">
        <dc:format>image/svg+xml</dc:format>
        <dc:type
           rdf:resource="http://purl.org/dc/dcmitype/StillImage" />
        <dc:title></dc:title>
      </cc:Work>
    </rdf:RDF>
  </metadata>
  <g
     inkscape:label="Layer 1"
     inkscape:groupmode="layer"
     id="layer1"
     transform="translate(-134.7485,-530.45942)">
    <path
       style="fill:#bebebe;fill-opacity:1;fill-rule:evenodd;stroke:none;stroke-width:0.03116116;stroke-miterlimit:4;stroke-dasharray:none;stroke-opacity:1"
       d="M 13.412109 0.93945312 C 13.386609 0.94145313 13.361437 0.9457251 13.335938 0.953125 L 1.9707031 4.2949219 C 0.83664318 4.5712119 1.4802974e-16 5.583195 0 6.796875 L 0 12.423828 C 0 13.851518 1.1579431 15 2.5957031 15 L 12.404297 15 C 13.842067 15 15 13.851518 15 12.423828 L 15 6.796875 C 15 5.369185 13.842067 4.2207031 12.404297 4.2207031 L 6.2871094 4.2207031 L 13.664062 2.0507812 C 13.868013 1.9907812 13.982275 1.780645 13.921875 1.578125 L 13.8125 1.2109375 C 13.7596 1.0337275 13.590309 0.92401312 13.412109 0.93945312 z M 9.5488281 5.5957031 A 4.0488458 4.0204897 0 0 1 13.597656 9.6152344 A 4.0488458 4.0204897 0 0 1 9.5488281 13.636719 A 4.0488458 4.0204897 0 0 1 5.5 9.6152344 A 4.0488458 4.0204897 0 0 1 9.5488281 5.5957031 z M 1.4277344 6.9648438 L 4.9355469 6.9648438 C 4.9952699 6.9648438 5.0429688 7.0144958 5.0429688 7.0742188 L 5.0429688 8.0058594 C 5.0429688 8.0655824 4.9952698 8.1132814 4.9355469 8.1132812 L 1.4277344 8.1132812 C 1.3680114 8.1132812 1.3203125 8.0655822 1.3203125 8.0058594 L 1.3203125 7.0742188 C 1.3203125 7.0144958 1.3680115 6.9648438 1.4277344 6.9648438 z M 3.1152344 10.664062 A 1.108282 1.1005201 0 0 1 4.2226562 11.765625 A 1.108282 1.1005201 0 0 1 3.1152344 12.865234 A 1.108282 1.1005201 0 0 1 2.0058594 11.765625 A 1.108282 1.1005201 0 0 1 3.1152344 10.664062 z "
       transform="translate(134.7485,530.45942)"
       id="path4591" />
  </g>
</svg>
